<svg xmlns="http://www.w3.org/2000/svg" width="32" height="32" viewBox="0 0 32 32">
  <circle cx="16" cy="16" r="16" fill="#000000"/>
  <g fill="white" transform="translate(0, 1)"> <!-- 살짝 아래로 내려 중심 잡기 -->
    <ellipse cx="14" cy="11" rx="2.2" ry="3"/> 
    <ellipse cx="18" cy="11" rx="2.2" ry="3"/>
    <ellipse cx="9.5" cy="14" rx="2" ry="2.8" transform="rotate(-30 9.5 14)"/>
    <ellipse cx="22.5" cy="14" rx="2" ry="2.8" transform="rotate(30 22.5 14)"/>
    <path d="M16 17.5l-0.5 0c-3 0-5.8 1.8-5.8 4.2 0 1.5 1.5 2.5 3.3 2.5h6c1.8 0 3.3-1 3.3-2.5 0-2.4-2.8-4.2-5.8-4.2l-0.5 0z"/>
  </g>
</svg>
